<svg xmlns="http://www.w3.org/2000/svg" style="display: none;">
 
  <symbol id="phone" viewBox="0 0 29 29" fill="none">
    <path d="M16.693 1.17812C16.5458 1.18945 16.4008 1.20984 16.258 1.25062L6.03553 4.15062C4.88686 4.47687 4.20491 5.68445 4.53116 6.83312L9.31616 23.6531C9.32522 23.7098 9.34335 23.7641 9.37053 23.8162L10.0593 26.2631C10.3855 27.4118 11.5931 28.0756 12.7418 27.7494L22.9643 24.8494C24.113 24.5231 24.7949 23.3155 24.4687 22.1669L23.798 19.8106C23.8071 19.6747 23.7686 19.541 23.6893 19.43L18.9405 2.73687C18.6958 1.87593 17.9686 1.2846 17.128 1.17812C16.9876 1.15999 16.8403 1.16679 16.693 1.17812ZM16.7837 2.31999C17.2572 2.28374 17.699 2.58734 17.8349 3.06312L22.4568 19.3756L10.2768 22.8194L5.65491 6.50687C5.50085 5.96085 5.81577 5.41031 6.36178 5.25624L16.5843 2.35624C16.6523 2.33585 16.7157 2.32453 16.7837 2.31999ZM22.1487 6.18062C21.981 6.20781 21.8337 6.30976 21.7454 6.45703C21.6593 6.60203 21.6389 6.78101 21.6955 6.94187L24.5955 17.1644C24.6862 17.4748 25.0101 17.6537 25.3205 17.5631C25.6309 17.4725 25.8099 17.1485 25.7193 16.8381L22.8193 6.61562C22.7536 6.3596 22.5225 6.18062 22.2574 6.18062C22.2393 6.18062 22.2212 6.18062 22.203 6.18062C22.1849 6.18062 22.1668 6.18062 22.1487 6.18062ZM25.4293 8.01124C25.2616 8.03843 25.1144 8.14038 25.026 8.28765C24.9399 8.43265 24.9195 8.61163 24.9762 8.77249L26.4262 13.8837C26.5168 14.1941 26.8408 14.3731 27.1512 14.2825C27.4615 14.1919 27.6405 13.8679 27.5499 13.5575L26.0999 8.44624C26.0342 8.19023 25.8031 8.01124 25.538 8.01124C25.5199 8.01124 25.5018 8.01124 25.4837 8.01124C25.4655 8.01124 25.4474 8.01124 25.4293 8.01124ZM3.78803 11.4006C3.76991 11.4052 3.75178 11.4119 3.73366 11.4187C3.57053 11.4482 3.42553 11.5456 3.33944 11.6884C3.25335 11.8311 3.23069 12.0033 3.28053 12.1619L6.18053 22.3844C6.27116 22.6948 6.59514 22.8737 6.90553 22.7831C7.21592 22.6925 7.39491 22.3685 7.30428 22.0581L4.40428 11.8356C4.33858 11.5796 4.10749 11.4006 3.84241 11.4006C3.82428 11.4006 3.80616 11.4006 3.78803 11.4006ZM1.95741 14.6812C1.93928 14.6858 1.92116 14.6926 1.90303 14.6994C1.73991 14.7288 1.59491 14.8262 1.50882 14.969C1.42272 15.1117 1.40007 15.2839 1.44991 15.4425L2.89991 20.5537C2.99053 20.8641 3.31452 21.0431 3.62491 20.9525C3.9353 20.8619 4.11428 20.5379 4.02366 20.2275L2.57366 15.1162C2.50796 14.8602 2.27686 14.6812 2.01178 14.6812C1.99366 14.6812 1.97553 14.6812 1.95741 14.6812ZM22.783 20.4994L23.3449 22.4931C23.499 23.0391 23.184 23.5897 22.638 23.7437L12.4155 26.6437C11.8695 26.7978 11.319 26.4829 11.1649 25.9369L10.603 23.9431L22.783 20.4994ZM17.0555 22.91C17.0034 22.9145 16.9445 22.9123 16.8924 22.9281C16.4687 23.0482 16.2286 23.5013 16.3487 23.925C16.4687 24.3487 16.9037 24.5888 17.3274 24.4687C17.7511 24.3487 17.9912 23.9137 17.8712 23.49C17.7669 23.1184 17.4248 22.8828 17.0555 22.91Z" fill="#606571" />
  </symbol>

  <symbol id="geo" viewBox="0 0 34 34" fill="none">
    <path d="M17 2.71997C11.7388 2.71997 7.47998 6.97879 7.47998 12.24C7.47998 16.5975 9.76132 21.2525 12.0022 24.8638C14.2432 28.4751 16.4873 31.0475 16.4873 31.0475C16.5515 31.1211 16.6309 31.18 16.7199 31.2202C16.8089 31.2604 16.9055 31.2809 17.0032 31.2804C17.1009 31.2799 17.1973 31.2584 17.2859 31.2173C17.3745 31.1762 17.4532 31.1165 17.5166 31.0422C17.5166 31.0422 19.7593 28.4206 21.999 24.7854C24.2387 21.1502 26.52 16.5017 26.52 12.24C26.52 6.97879 22.2612 2.71997 17 2.71997ZM17 4.07997C21.5308 4.07997 25.16 7.70916 25.16 12.24C25.16 16.0023 23.0212 20.5334 20.8409 24.0722C19.0709 26.9452 17.5988 28.7788 16.996 29.5122C16.39 28.7879 14.9229 26.9913 13.1577 24.1466C10.9786 20.6349 8.83998 16.1104 8.83998 12.24C8.83998 7.70916 12.4692 4.07997 17 4.07997ZM17 7.47997C14.3851 7.47997 12.24 9.62506 12.24 12.24C12.24 14.8549 14.3851 17 17 17C19.6149 17 21.76 14.8549 21.76 12.24C21.76 9.62506 19.6149 7.47997 17 7.47997ZM17 8.83997C18.8731 8.83997 20.4 10.3669 20.4 12.24C20.4 14.1131 18.8731 15.64 17 15.64C15.1269 15.64 13.6 14.1131 13.6 12.24C13.6 10.3669 15.1269 8.83997 17 8.83997Z" fill="#606571" />
  </symbol>

  <symbol id="burger" viewBox="0 0 29 12" fill="none">
    <rect width="29" height="3" rx="1.5" fill="#F69020" />
    <rect y="9" width="29" height="3" rx="1.5" fill="#F69020" />
  </symbol>

  <symbol id="cross" viewBox="0 0 22 22" fill="none">
    <path d="M0.439574 0.43934C1.02536 -0.146447 1.97511 -0.146447 2.56089 0.43934L20.9457 18.8241C21.5315 19.4099 21.5315 20.3597 20.9457 20.9454C20.3599 21.5312 19.4101 21.5312 18.8243 20.9454L0.439573 2.56066C-0.146213 1.97487 -0.146213 1.02513 0.439574 0.43934Z" fill="#F69020" />
    <path d="M20.9454 0.43934C20.3596 -0.146447 19.4099 -0.146447 18.8241 0.43934L0.43934 18.8241C-0.146447 19.4099 -0.146447 20.3597 0.43934 20.9454C1.02513 21.5312 1.97487 21.5312 2.56066 20.9454L20.9454 2.56066C21.5312 1.97487 21.5312 1.02513 20.9454 0.43934Z" fill="#F69020" />
  </symbol>
</svg>